<?xml version="1.0" encoding="utf-8"?>
<!-- Generator: Adobe Illustrator 27.9.0, SVG Export Plug-In . SVG Version: 6.00 Build 0)  -->
<svg version="1.1" id="Capa_1" xmlns="http://www.w3.org/2000/svg" xmlns:xlink="http://www.w3.org/1999/xlink" x="0px" y="0px"
	 viewBox="0 0 300 300" style="enable-background:new 0 0 300 300;" xml:space="preserve">
<style type="text/css">
	.st0{fill-rule:evenodd;clip-rule:evenodd;fill:#FFC800;}
</style>
<g>
	<path class="st0" d="M243.2,94.7c3.1,0,5.6,2.5,5.6,5.6c0,3.4-2.8,5.6-5.7,5.6c-1.4,0-2.8-0.5-3.9-1.6
		C235.5,100.7,238.1,94.7,243.2,94.7z M243.1,93.6c-1.6,0-3.3,0.6-4.7,2c-4.2,4.2-1.3,11.4,4.8,11.4c3.6,0,6.6-3,6.6-6.7
		C249.8,96.3,246.5,93.6,243.1,93.6z"/>
	<path class="st0" d="M206.1,94.7c3.1,0,5.7,2.5,5.7,5.6c-0.1,3.4-2.8,5.6-5.7,5.6c-1.4,0-2.8-0.5-3.9-1.6
		C198.6,100.7,201.1,94.7,206.1,94.7z M206.1,93.6c-1.6,0-3.3,0.6-4.7,2c-4.2,4.2-1.2,11.4,4.7,11.4c3.7,0,6.7-3,6.7-6.7
		C212.8,96.3,209.5,93.6,206.1,93.6z"/>
	<path class="st0" d="M169.2,94.7c3.1,0,5.6,2.5,5.6,5.6c0,3.4-2.8,5.6-5.6,5.6c-1.4,0-2.8-0.5-3.9-1.6
		C161.7,100.7,164.2,94.7,169.2,94.7z M169.2,93.6c-1.6,0-3.3,0.6-4.7,2c-4.3,4.2-1.3,11.4,4.7,11.4c3.7,0,6.7-3,6.7-6.7
		C175.9,96.3,172.6,93.6,169.2,93.6z"/>
	<path class="st0" d="M132.2,94.7c3.1,0,5.6,2.5,5.6,5.6c0,3.4-2.8,5.6-5.7,5.6c-1.4,0-2.8-0.5-3.9-1.6
		C124.7,100.7,127.2,94.7,132.2,94.7z M132.2,93.6c-1.6,0-3.3,0.6-4.7,2c-4.3,4.2-1.2,11.4,4.7,11.4c3.7,0,6.7-3,6.7-6.7
		C138.9,96.3,135.6,93.6,132.2,93.6z"/>
	<path class="st0" d="M95.3,94.7c3.1,0,5.6,2.5,5.6,5.6c0,3.4-2.8,5.6-5.7,5.6c-1.4,0-2.8-0.5-3.9-1.6
		C87.8,100.7,90.3,94.7,95.3,94.7z M95.3,93.6c-1.7,0-3.3,0.6-4.7,2c-4.2,4.2-1.2,11.4,4.8,11.4c3.7,0,6.7-3,6.7-6.7
		C102,96.3,98.7,93.6,95.3,93.6z"/>
	<path class="st0" d="M58.4,94.7c3.1,0,5.6,2.5,5.6,5.6c0,3.4-2.8,5.6-5.7,5.6c-1.4,0-2.8-0.5-3.9-1.6
		C50.8,100.7,53.3,94.7,58.4,94.7z M58.3,93.6c-1.6,0-3.3,0.6-4.7,2c-4.2,4.2-1.2,11.4,4.8,11.4c3.7,0,6.6-3,6.6-6.7
		C65,96.3,61.7,93.6,58.3,93.6z"/>
	<path class="st0" d="M243.2,128.1c3.1,0,5.6,2.5,5.6,5.6c0,3.4-2.8,5.6-5.7,5.6c-1.4,0-2.8-0.5-3.9-1.6
		C235.5,134.1,238.1,128.1,243.2,128.1z M243.1,127c-1.6,0-3.3,0.6-4.7,2c-4.2,4.2-1.3,11.4,4.8,11.4c3.6,0,6.6-3,6.6-6.7
		C249.8,129.7,246.5,127,243.1,127z"/>
	<path class="st0" d="M206.1,128.1c3.1,0,5.6,2.5,5.7,5.6c-0.1,3.4-2.8,5.6-5.7,5.6c-1.4,0-2.8-0.5-3.9-1.6
		C198.6,134.1,201.1,128.1,206.1,128.1z M206.1,127c-1.6,0-3.3,0.6-4.7,2c-4.2,4.2-1.2,11.4,4.7,11.4c3.7,0,6.7-3,6.7-6.7
		C212.8,129.7,209.5,127,206.1,127z"/>
	<path class="st0" d="M169.2,128.1c3.1,0,5.6,2.5,5.6,5.6c0,3.4-2.8,5.6-5.6,5.6c-1.4,0-2.8-0.5-3.9-1.6
		C161.7,134.1,164.2,128.1,169.2,128.1z M169.2,127c-1.6,0-3.3,0.6-4.7,2c-4.3,4.2-1.3,11.4,4.7,11.4c3.7,0,6.7-3,6.7-6.7
		C175.9,129.7,172.6,127,169.2,127z"/>
	<path class="st0" d="M132.2,128.1c3.1,0,5.6,2.5,5.6,5.6c0,3.4-2.8,5.6-5.7,5.6c-1.4,0-2.8-0.5-3.9-1.6
		C124.7,134.1,127.2,128.1,132.2,128.1z M132.2,127c-1.6,0-3.3,0.6-4.7,2c-4.3,4.2-1.2,11.4,4.7,11.4c3.7,0,6.7-3,6.7-6.7
		C138.9,129.7,135.6,127,132.2,127z"/>
	<path class="st0" d="M95.3,128.1c3.1,0,5.6,2.5,5.6,5.6c0,3.4-2.8,5.6-5.7,5.6c-1.4,0-2.8-0.5-3.9-1.6
		C87.8,134.1,90.3,128.1,95.3,128.1z M95.3,127c-1.7,0-3.3,0.6-4.7,2c-4.2,4.2-1.2,11.4,4.8,11.4c3.7,0,6.7-3,6.7-6.7
		C102,129.7,98.7,127,95.3,127z"/>
	<path class="st0" d="M58.4,128.1c3.1,0,5.6,2.5,5.6,5.6c0,3.4-2.8,5.6-5.7,5.6c-1.4,0-2.8-0.5-3.9-1.6
		C50.8,134.1,53.3,128.1,58.4,128.1z M58.3,127c-1.6,0-3.3,0.6-4.7,2c-4.2,4.2-1.2,11.4,4.8,11.4c3.7,0,6.6-3,6.6-6.7
		C65,129.7,61.7,127,58.3,127z"/>
	<path class="st0" d="M243.2,159.8c3.1,0,5.6,2.5,5.6,5.6c0,3.4-2.8,5.6-5.7,5.6c-1.4,0-2.8-0.5-3.9-1.6
		C235.5,165.8,238.1,159.8,243.2,159.8z M243.1,158.7c-1.6,0-3.3,0.6-4.7,2c-4.2,4.2-1.3,11.4,4.8,11.4c3.6,0,6.6-3,6.6-6.7
		C249.8,161.4,246.5,158.7,243.1,158.7z"/>
	<path class="st0" d="M206.1,159.8c3.1,0,5.7,2.5,5.7,5.6c-0.1,3.4-2.8,5.6-5.7,5.6c-1.4,0-2.8-0.5-3.9-1.6
		C198.6,165.8,201.1,159.8,206.1,159.8z M206.1,158.7c-1.6,0-3.3,0.6-4.7,2c-4.2,4.2-1.2,11.4,4.7,11.4c3.7,0,6.7-3,6.7-6.7
		C212.8,161.4,209.5,158.7,206.1,158.7z"/>
	<path class="st0" d="M169.2,159.8c3.1,0,5.6,2.5,5.6,5.6c0,3.4-2.8,5.6-5.6,5.6c-1.4,0-2.8-0.5-3.9-1.6
		C161.7,165.9,164.2,159.8,169.2,159.8z M169.2,158.7c-1.6,0-3.3,0.6-4.7,2c-4.3,4.2-1.3,11.4,4.7,11.4c3.7,0,6.7-3,6.7-6.7
		C175.9,161.4,172.6,158.7,169.2,158.7z"/>
	<path class="st0" d="M132.2,159.8c3.1,0,5.6,2.5,5.6,5.6c0,3.4-2.8,5.6-5.7,5.6c-1.4,0-2.8-0.5-3.9-1.6
		C124.7,165.9,127.2,159.8,132.2,159.8z M132.2,158.7c-1.6,0-3.3,0.6-4.7,2c-4.3,4.2-1.2,11.4,4.7,11.4c3.7,0,6.7-3,6.7-6.7
		C138.9,161.4,135.6,158.7,132.2,158.7z"/>
	<path class="st0" d="M95.3,159.8c3.1,0,5.6,2.5,5.6,5.6c0,3.4-2.8,5.6-5.7,5.6c-1.4,0-2.8-0.5-3.9-1.6
		C87.8,165.9,90.3,159.8,95.3,159.8z M95.3,158.7c-1.6,0-3.3,0.6-4.7,2c-4.2,4.2-1.2,11.4,4.8,11.4c3.7,0,6.7-3,6.7-6.7
		C102,161.4,98.7,158.7,95.3,158.7z"/>
	<path class="st0" d="M58.4,159.8c3.1,0,5.6,2.5,5.6,5.6c0,3.4-2.8,5.6-5.7,5.6c-1.4,0-2.8-0.5-3.9-1.6
		C50.8,165.8,53.3,159.8,58.4,159.8z M58.3,158.7c-1.6,0-3.3,0.6-4.7,2c-4.2,4.2-1.2,11.4,4.8,11.4c3.7,0,6.6-3,6.6-6.7
		C65,161.4,61.7,158.7,58.3,158.7z"/>
	<path class="st0" d="M243.2,193.2c3.1,0,5.6,2.5,5.6,5.6c0,3.4-2.8,5.6-5.7,5.6c-1.4,0-2.8-0.5-3.9-1.6
		C235.5,199.3,238.1,193.2,243.2,193.2z M243.1,192.2c-1.6,0-3.3,0.6-4.7,2c-4.2,4.2-1.3,11.4,4.8,11.4c3.6,0,6.6-3,6.6-6.7
		C249.8,194.8,246.5,192.2,243.1,192.2z"/>
	<path class="st0" d="M206.1,193.2c3.1,0,5.6,2.5,5.7,5.6c0,3.4-2.8,5.6-5.7,5.6c-1.4,0-2.8-0.5-3.9-1.6
		C198.6,199.3,201.1,193.2,206.1,193.2z M206.1,192.2c-1.6,0-3.3,0.6-4.7,2c-4.2,4.2-1.2,11.4,4.7,11.4c3.7,0,6.7-3,6.7-6.7
		C212.8,194.8,209.5,192.2,206.1,192.2z"/>
	<path class="st0" d="M169.2,193.2c3.1,0,5.6,2.5,5.6,5.6c0,3.4-2.8,5.6-5.6,5.6c-1.4,0-2.8-0.5-3.9-1.6
		C161.7,199.3,164.2,193.2,169.2,193.2z M169.2,192.2c-1.6,0-3.3,0.6-4.7,2c-4.3,4.2-1.3,11.4,4.7,11.4c3.7,0,6.7-3,6.7-6.7
		C175.9,194.8,172.6,192.2,169.2,192.2z"/>
	<path class="st0" d="M132.2,193.2c3.1,0,5.6,2.5,5.6,5.6c0,3.4-2.8,5.6-5.7,5.6c-1.4,0-2.8-0.5-3.9-1.6
		C124.7,199.3,127.2,193.2,132.2,193.2z M132.2,192.2c-1.6,0-3.3,0.6-4.7,2c-4.3,4.2-1.2,11.4,4.7,11.4c3.7,0,6.7-3,6.7-6.7
		C138.9,194.8,135.6,192.2,132.2,192.2z"/>
	<path class="st0" d="M95.3,193.2c3.1,0,5.6,2.5,5.6,5.6c0,3.4-2.8,5.6-5.7,5.6c-1.4,0-2.8-0.5-3.9-1.6
		C87.8,199.3,90.3,193.2,95.3,193.2z M95.3,192.2c-1.6,0-3.3,0.6-4.7,2c-4.2,4.2-1.2,11.4,4.8,11.4c3.7,0,6.7-3,6.7-6.7
		C102,194.8,98.7,192.2,95.3,192.2z"/>
	<path class="st0" d="M58.4,193.2c3.1,0,5.6,2.5,5.6,5.6c0,3.4-2.8,5.6-5.7,5.6c-1.4,0-2.8-0.5-3.9-1.6
		C50.8,199.3,53.3,193.2,58.4,193.2z M58.3,192.2c-1.6,0-3.3,0.6-4.7,2c-4.2,4.2-1.2,11.4,4.8,11.4c3.7,0,6.6-3,6.6-6.7
		C65,194.8,61.7,192.2,58.3,192.2z"/>
</g>
</svg>
