<?xml version="1.0" encoding="utf-8"?>
<!-- Generator: Adobe Illustrator 27.9.0, SVG Export Plug-In . SVG Version: 6.00 Build 0)  -->
<svg version="1.1" id="Capa_1" xmlns="http://www.w3.org/2000/svg" xmlns:xlink="http://www.w3.org/1999/xlink" x="0px" y="0px"
	 viewBox="0 0 300 300" style="enable-background:new 0 0 300 300;" xml:space="preserve">
<style type="text/css">
	.st0{fill-rule:evenodd;clip-rule:evenodd;fill:#FFC800;}
	.st1{fill-rule:evenodd;clip-rule:evenodd;fill:#261103;}
</style>
<path class="st0" d="M133.1,82c-46.2,0-83.6,37.5-83.6,83.6c-0.1,33.8,20.4,64.3,51.6,77.3c10.4,4.3,21.2,6.4,32,6.4
	c21.8,0,43.2-8.5,59.2-24.5c23.9-24,31.1-59.9,18.1-91.2C197.4,102.3,166.9,82,133.1,82z"/>
<path class="st1" d="M146,49.8c57.6,0,104.4,46.8,104.4,104.4h-1.9c0-56.5-46-102.5-102.5-102.5C146,51.7,146,49.8,146,49.8z"/>
</svg>
