<?xml version="1.0" encoding="utf-8"?>
<!-- Generator: Adobe Illustrator 27.9.0, SVG Export Plug-In . SVG Version: 6.00 Build 0)  -->
<svg version="1.1" id="Capa_1" xmlns="http://www.w3.org/2000/svg" xmlns:xlink="http://www.w3.org/1999/xlink" x="0px" y="0px"
	 viewBox="0 0 300 300" style="enable-background:new 0 0 300 300;" xml:space="preserve">
<style type="text/css">
	.st0{fill:none;stroke:#261103;stroke-width:2.7686;stroke-linejoin:round;stroke-miterlimit:10;}
	.st1{fill-rule:evenodd;clip-rule:evenodd;fill:#FFC800;}
	.st2{fill-rule:evenodd;clip-rule:evenodd;fill:#261103;}
</style>
<path class="st0" d="M148.6,26.2c-36.4,0-65.9,29.5-65.9,65.9c0,26.6,16,50.7,40.6,60.9c8.2,3.4,16.7,5,25.2,5
	c17.2,0,34-6.7,46.6-19.3c18.8-18.9,24.5-47.2,14.3-71.8C199.2,42.3,175.2,26.2,148.6,26.2z"/>
<path class="st1" d="M148.6,102.9c-36.4,0-65.9,29.5-65.9,65.9c0,26.6,16,50.7,40.6,60.9c8.2,3.4,16.7,5,25.2,5
	c17.2,0,34-6.7,46.6-19.3c18.8-18.9,24.5-47.2,14.3-71.8C199.2,119,175.2,102.9,148.6,102.9z"/>
<path class="st2" d="M149.6,194.3c-22,0-39.8,17.8-39.8,39.8c0,16.1,9.7,30.6,24.5,36.8c4.9,2,10.1,3,15.2,3
	c10.4,0,20.5-4,28.2-11.7c11.4-11.4,14.8-28.5,8.6-43.4C180.2,203.9,165.7,194.3,149.6,194.3z"/>
</svg>
