<?xml version="1.0" encoding="utf-8"?>
<!-- Generator: Adobe Illustrator 27.9.0, SVG Export Plug-In . SVG Version: 6.00 Build 0)  -->
<svg version="1.1" id="Capa_1" xmlns="http://www.w3.org/2000/svg" xmlns:xlink="http://www.w3.org/1999/xlink" x="0px" y="0px"
	 viewBox="0 0 300 300" style="enable-background:new 0 0 300 300;" xml:space="preserve">
<style type="text/css">
	.st0{fill-rule:evenodd;clip-rule:evenodd;fill:#261103;}
</style>
<g>
	<path class="st0" d="M267,80.6c3.9,0,7,3.1,7,7c0,4.3-3.5,7.1-7.2,7.1c-1.7,0-3.5-0.6-4.9-2.1C257.4,88.1,260.6,80.6,267,80.6z
		 M266.8,79.2c-2.1,0-4.2,0.8-5.9,2.5c-5.3,5.3-1.6,14.3,6,14.3c4.5,0,8.3-3.8,8.3-8.4C275.3,82.6,271.1,79.2,266.8,79.2z"/>
	<path class="st0" d="M220.4,80.6c3.9,0,7.1,3.1,7.1,7c-0.1,4.3-3.6,7.1-7.2,7.1c-1.7,0-3.5-0.6-4.9-2.1
		C210.9,88.1,214.1,80.6,220.4,80.6z M220.4,79.2c-2.1,0-4.2,0.8-5.9,2.5c-5.3,5.3-1.6,14.3,5.9,14.3c4.6,0,8.4-3.8,8.4-8.4
		C228.8,82.6,224.7,79.2,220.4,79.2z"/>
	<path class="st0" d="M173.9,80.6c3.9,0,7,3.1,7,7c0,4.3-3.5,7.1-7.1,7.1c-1.7,0-3.5-0.6-4.9-2.1C164.5,88.1,167.6,80.6,173.9,80.6z
		 M173.9,79.2c-2.1,0-4.2,0.8-5.9,2.5c-5.4,5.3-1.6,14.3,5.9,14.3c4.6,0,8.4-3.8,8.4-8.4C182.4,82.6,178.2,79.2,173.9,79.2z"/>
	<path class="st0" d="M127.5,80.6c3.9,0,7,3.1,7,7c0,4.3-3.5,7.1-7.1,7.1c-1.7,0-3.5-0.6-5-2.1C118,88.1,121.2,80.6,127.5,80.6z
		 M127.5,79.2c-2.1,0-4.2,0.8-5.9,2.5C116.2,87,120,96,127.5,96c4.6,0,8.4-3.8,8.4-8.4C135.9,82.6,131.8,79.2,127.5,79.2z"/>
	<path class="st0" d="M81,80.6c3.9,0,7,3.1,7,7c0,4.3-3.5,7.1-7.1,7.1c-1.7,0-3.5-0.6-5-2.1C71.6,88.1,74.7,80.6,81,80.6z M81,79.2
		c-2.1,0-4.2,0.8-6,2.5C69.8,87,73.6,96,81,96c4.6,0,8.4-3.8,8.4-8.4C89.4,82.6,85.3,79.2,81,79.2z"/>
	<path class="st0" d="M34.6,80.6c3.9,0,7,3.1,7,7c0,4.3-3.5,7.1-7.2,7.1c-1.7,0-3.5-0.6-4.9-2.1C25.1,88.1,28.3,80.6,34.6,80.6z
		 M34.5,79.2c-2.1,0-4.2,0.8-5.9,2.5C23.3,87,27.1,96,34.6,96c4.6,0,8.3-3.8,8.3-8.4C42.9,82.6,38.8,79.2,34.5,79.2z"/>
	<path class="st0" d="M267,122.6c3.9,0,7,3.1,7,7c0,4.3-3.5,7.1-7.2,7.1c-1.7,0-3.5-0.6-4.9-2.1C257.4,130.2,260.6,122.6,267,122.6z
		 M266.8,121.2c-2.1,0-4.2,0.8-5.9,2.5c-5.3,5.3-1.6,14.3,6,14.3c4.5,0,8.3-3.8,8.3-8.4C275.3,124.6,271.1,121.2,266.8,121.2z"/>
	<path class="st0" d="M220.4,122.6c3.9,0,7,3.1,7.1,7c-0.1,4.3-3.6,7.1-7.2,7.1c-1.7,0-3.5-0.6-4.9-2.1
		C210.9,130.2,214.1,122.6,220.4,122.6z M220.4,121.2c-2.1,0-4.2,0.8-5.9,2.5c-5.3,5.3-1.6,14.3,5.9,14.3c4.6,0,8.4-3.8,8.4-8.4
		C228.8,124.6,224.7,121.2,220.4,121.2z"/>
	<path class="st0" d="M173.9,122.6c3.9,0,7,3.1,7,7c0,4.3-3.5,7.1-7.1,7.1c-1.7,0-3.5-0.6-4.9-2.1
		C164.5,130.2,167.6,122.6,173.9,122.6z M173.9,121.2c-2.1,0-4.2,0.8-5.9,2.5c-5.4,5.3-1.6,14.3,5.9,14.3c4.6,0,8.4-3.8,8.4-8.4
		C182.4,124.6,178.2,121.2,173.9,121.2z"/>
	<path class="st0" d="M127.5,122.6c3.9,0,7,3.1,7,7c0,4.3-3.5,7.1-7.1,7.1c-1.7,0-3.5-0.6-5-2.1C118,130.2,121.2,122.6,127.5,122.6z
		 M127.5,121.2c-2.1,0-4.2,0.8-5.9,2.5c-5.4,5.3-1.6,14.3,5.9,14.3c4.6,0,8.4-3.8,8.4-8.4C135.9,124.6,131.8,121.2,127.5,121.2z"/>
	<path class="st0" d="M81,122.6c3.9,0,7,3.1,7,7c0,4.3-3.5,7.1-7.1,7.1c-1.7,0-3.5-0.6-5-2.1C71.6,130.2,74.7,122.6,81,122.6z
		 M81,121.2c-2.1,0-4.2,0.8-6,2.5c-5.3,5.3-1.5,14.3,6,14.3c4.6,0,8.4-3.8,8.4-8.4C89.4,124.6,85.3,121.2,81,121.2z"/>
	<path class="st0" d="M34.6,122.6c3.9,0,7,3.1,7,7c0,4.3-3.5,7.1-7.2,7.1c-1.7,0-3.5-0.6-4.9-2.1C25.1,130.2,28.3,122.6,34.6,122.6z
		 M34.5,121.2c-2.1,0-4.2,0.8-5.9,2.5c-5.3,5.3-1.5,14.3,6,14.3c4.6,0,8.3-3.8,8.3-8.4C42.9,124.6,38.8,121.2,34.5,121.2z"/>
	<path class="st0" d="M267,162.4c3.9,0,7,3.1,7,7c0,4.3-3.5,7.1-7.2,7.1c-1.7,0-3.5-0.6-4.9-2.1C257.4,170,260.6,162.4,267,162.4z
		 M266.8,161.1c-2.1,0-4.2,0.8-5.9,2.5c-5.3,5.3-1.6,14.3,6,14.3c4.5,0,8.3-3.8,8.3-8.4C275.3,164.4,271.1,161.1,266.8,161.1z"/>
	<path class="st0" d="M220.4,162.4c3.9,0,7.1,3.1,7.1,7c-0.1,4.3-3.6,7.1-7.2,7.1c-1.7,0-3.5-0.6-4.9-2.1
		C210.9,170,214.1,162.4,220.4,162.4z M220.4,161.1c-2.1,0-4.2,0.8-5.9,2.5c-5.3,5.3-1.6,14.3,5.9,14.3c4.6,0,8.4-3.8,8.4-8.4
		C228.8,164.4,224.7,161.1,220.4,161.1z"/>
	<path class="st0" d="M173.9,162.4c3.9,0,7,3.1,7,7c0,4.3-3.5,7.1-7.1,7.1c-1.7,0-3.5-0.6-4.9-2.1
		C164.5,170.1,167.6,162.4,173.9,162.4z M173.9,161.1c-2.1,0-4.2,0.8-5.9,2.5c-5.4,5.3-1.6,14.3,5.9,14.3c4.6,0,8.4-3.8,8.4-8.4
		C182.4,164.4,178.2,161.1,173.9,161.1z"/>
	<path class="st0" d="M127.5,162.4c3.9,0,7,3.1,7,7c0,4.3-3.5,7.1-7.1,7.1c-1.7,0-3.5-0.6-5-2.1C118,170.1,121.2,162.4,127.5,162.4z
		 M127.5,161.1c-2.1,0-4.2,0.8-5.9,2.5c-5.4,5.3-1.6,14.3,5.9,14.3c4.6,0,8.4-3.8,8.4-8.4C135.9,164.4,131.8,161.1,127.5,161.1z"/>
	<path class="st0" d="M81,162.4c3.9,0,7,3.1,7,7c0,4.3-3.5,7.1-7.1,7.1c-1.7,0-3.5-0.6-5-2.1C71.6,170.1,74.7,162.4,81,162.4z
		 M81,161.1c-2.1,0-4.2,0.8-5.9,2.5c-5.3,5.3-1.5,14.3,6,14.3c4.6,0,8.4-3.8,8.4-8.4C89.4,164.4,85.3,161.1,81,161.1z"/>
	<path class="st0" d="M34.6,162.4c3.9,0,7,3.1,7,7c0,4.3-3.5,7.1-7.2,7.1c-1.7,0-3.5-0.6-4.9-2.1C25.1,170,28.3,162.4,34.6,162.4z
		 M34.5,161.1c-2.1,0-4.2,0.8-5.9,2.5c-5.3,5.3-1.5,14.3,6,14.3c4.6,0,8.3-3.8,8.3-8.4C42.9,164.4,38.8,161.1,34.5,161.1z"/>
	<path class="st0" d="M267,204.5c3.9,0,7,3.1,7,7c0,4.3-3.5,7.1-7.2,7.1c-1.7,0-3.5-0.6-4.9-2.1C257.4,212.1,260.6,204.5,267,204.5z
		 M266.8,203.2c-2.1,0-4.2,0.8-5.9,2.5c-5.3,5.3-1.6,14.3,6,14.3c4.5,0,8.3-3.8,8.3-8.4C275.3,206.5,271.1,203.2,266.8,203.2z"/>
	<path class="st0" d="M220.4,204.5c3.9,0,7,3.1,7.1,7c0,4.3-3.5,7.1-7.2,7.1c-1.7,0-3.5-0.6-4.9-2.1
		C210.9,212.1,214.1,204.5,220.4,204.5z M220.4,203.2c-2.1,0-4.2,0.8-5.9,2.5c-5.3,5.3-1.6,14.3,5.9,14.3c4.6,0,8.4-3.8,8.4-8.4
		C228.8,206.5,224.7,203.2,220.4,203.2z"/>
	<path class="st0" d="M173.9,204.5c3.9,0,7,3.1,7,7c0,4.3-3.5,7.1-7.1,7.1c-1.7,0-3.5-0.6-4.9-2.1
		C164.5,212.1,167.6,204.5,173.9,204.5z M173.9,203.2c-2.1,0-4.2,0.8-5.9,2.5c-5.4,5.3-1.6,14.3,5.9,14.3c4.6,0,8.4-3.8,8.4-8.4
		C182.4,206.5,178.2,203.2,173.9,203.2z"/>
	<path class="st0" d="M127.5,204.5c3.9,0,7,3.1,7,7c0,4.3-3.5,7.1-7.1,7.1c-1.7,0-3.5-0.6-5-2.1C118,212.1,121.2,204.5,127.5,204.5z
		 M127.5,203.2c-2.1,0-4.2,0.8-5.9,2.5c-5.4,5.3-1.6,14.3,5.9,14.3c4.6,0,8.4-3.8,8.4-8.4C135.9,206.5,131.8,203.2,127.5,203.2z"/>
	<path class="st0" d="M81,204.5c3.9,0,7,3.1,7,7c0,4.3-3.5,7.1-7.1,7.1c-1.7,0-3.5-0.6-5-2.1C71.6,212.1,74.7,204.5,81,204.5z
		 M81,203.2c-2.1,0-4.2,0.8-5.9,2.5c-5.3,5.3-1.5,14.3,6,14.3c4.6,0,8.4-3.8,8.4-8.4C89.4,206.5,85.3,203.2,81,203.2z"/>
	<path class="st0" d="M34.6,204.5c3.9,0,7,3.1,7,7c0,4.3-3.5,7.1-7.2,7.1c-1.7,0-3.5-0.6-4.9-2.1C25.1,212.1,28.3,204.5,34.6,204.5z
		 M34.5,203.2c-2.1,0-4.2,0.8-5.9,2.5c-5.3,5.3-1.5,14.3,6,14.3c4.6,0,8.3-3.8,8.3-8.4C42.9,206.5,38.8,203.2,34.5,203.2z"/>
</g>
</svg>
